<!DOCTYPE svg PUBLIC "-//W3C//DTD SVG 1.1//EN" "http://www.w3.org/Graphics/SVG/1.1/DTD/svg11.dtd">
<!-- Uploaded to: SVG Repo, www.svgrepo.com, Transformed by: SVG Repo Mixer Tools -->
<svg fill="#ff7a7a" width="800px" height="800px" viewBox="0 0 512 512" version="1.1" xml:space="preserve" xmlns="http://www.w3.org/2000/svg" xmlns:xlink="http://www.w3.org/1999/xlink" stroke="#ff7a7a">
<g id="SVGRepo_bgCarrier" stroke-width="0"/>
<g id="SVGRepo_tracerCarrier" stroke-linecap="round" stroke-linejoin="round"/>
<g id="SVGRepo_iconCarrier"> <g id="A_-_118_x2C__line_x2C__text_x2C__zoom__x2C__reading"> <g> <rect height="131.53" width="152.57" x="89.159" y="43.751"/> <path d="M362.261,430.851c-1.999,0-3.892,0.793-5.331,2.232c-2.867,2.868-2.865,7.717,0.001,10.589 c1.417,1.389,3.318,2.167,5.33,2.167c2.004,0,3.894-0.775,5.315-2.182c1.41-1.397,2.187-3.275,2.187-5.285 c0-2.007-0.778-3.881-2.188-5.277C366.133,431.64,364.253,430.851,362.261,430.851z"/> <path d="M220.607,244.995c-13.829,0-26.825,5.372-36.598,15.125c-20.139,20.181-20.139,53.024,0.004,73.21 c4.502,4.494,9.699,8.045,15.34,10.581l35.488-61.475c0.906-1.567,2.913-2.105,4.48-1.201c1.568,0.906,2.105,2.912,1.201,4.48 l-34.945,60.534c4.811,1.45,9.862,2.2,15.03,2.2c13.828,0,26.814-5.371,36.569-15.123c9.794-9.794,15.187-22.793,15.187-36.604 c0-13.813-5.393-26.812-15.187-36.605C247.421,250.366,234.435,244.995,220.607,244.995z M236.099,263.288l-23.736,41.091 c-0.608,1.053-1.709,1.641-2.843,1.641c-0.557,0-1.12-0.141-1.637-0.439c-1.569-0.906-2.106-2.912-1.2-4.48l23.736-41.092 c0.906-1.568,2.912-2.104,4.48-1.2C236.467,259.714,237.004,261.72,236.099,263.288z"/> <path d="M326.547,368.823c-1.248-1.235-2.958-1.924-4.799-1.924c-1.844,0-3.553,0.688-4.814,1.937l-1.539,1.543l-22.682,22.718 c-2.605,2.654-2.592,6.928,0.041,9.562l63.607,63.604c1.281,1.281,2.985,1.987,4.801,1.987c1.814,0,3.52-0.706,4.799-1.987 l24.147-24.227c1.284-1.284,1.99-2.989,1.99-4.805c0-1.816-0.706-3.521-1.987-4.802L326.547,368.823z M372.191,448.318 c-2.662,2.633-6.188,4.08-9.931,4.08c-3.739,0-7.271-1.445-9.946-4.067c-5.494-5.503-5.494-14.413-0.024-19.886 c2.679-2.679,6.219-4.154,9.971-4.154c3.756,0,7.29,1.479,9.951,4.164c2.642,2.615,4.108,6.145,4.11,9.915 C376.323,442.144,374.856,445.677,372.191,448.318z"/> <path d="M269.119,50.792h156.714c1.812,0,3.28-1.468,3.28-3.28c0-1.811-1.469-3.28-3.28-3.28H269.119 c-1.812,0-3.281,1.469-3.281,3.28C265.838,49.324,267.308,50.792,269.119,50.792z"/> <path d="M425.833,66.085H269.119c-1.812,0-3.281,1.469-3.281,3.28c0,1.812,1.47,3.28,3.281,3.28h156.714 c1.812,0,3.28-1.468,3.28-3.28C429.113,67.554,427.645,66.085,425.833,66.085z"/> <path d="M425.833,87.859H269.119c-1.812,0-3.281,1.469-3.281,3.28c0,1.812,1.47,3.28,3.281,3.28h156.714 c1.812,0,3.28-1.468,3.28-3.28C429.113,89.328,427.645,87.859,425.833,87.859z"/> <path d="M425.833,109.717H269.119c-1.812,0-3.281,1.469-3.281,3.28c0,1.812,1.47,3.28,3.281,3.28h156.714 c1.812,0,3.28-1.468,3.28-3.28C429.113,111.186,427.645,109.717,425.833,109.717z"/> <path d="M425.833,131.571H269.119c-1.812,0-3.281,1.468-3.281,3.28c0,1.811,1.47,3.28,3.281,3.28h156.714 c1.812,0,3.28-1.469,3.28-3.28C429.113,133.039,427.645,131.571,425.833,131.571z"/> <path d="M425.833,153.428H269.119c-1.812,0-3.281,1.469-3.281,3.28c0,1.812,1.47,3.28,3.281,3.28h156.714 c1.812,0,3.28-1.468,3.28-3.28C429.113,154.897,427.645,153.428,425.833,153.428z"/> <path d="M425.833,175.282H269.119c-1.812,0-3.281,1.469-3.281,3.28c0,1.812,1.47,3.28,3.281,3.28h156.714 c1.812,0,3.28-1.468,3.28-3.28C429.113,176.75,427.645,175.282,425.833,175.282z"/> <path d="M425.833,197.14H86.167c-1.811,0-3.28,1.468-3.28,3.28c0,1.811,1.469,3.28,3.28,3.28h339.666 c1.812,0,3.28-1.469,3.28-3.28C429.113,198.607,427.645,197.14,425.833,197.14z"/> <path d="M429.113,222.274c0-1.812-1.469-3.28-3.28-3.28H254.835c-0.032,0-0.062,0.008-0.094,0.009 c-10.41-4.409-21.698-6.736-33.347-6.736c-11.646,0-22.928,2.326-33.331,6.734c-0.023-0.001-0.043-0.007-0.066-0.007H86.167 c-1.811,0-3.28,1.468-3.28,3.28c0,1.811,1.469,3.28,3.28,3.28h89.459c-5.194,3.311-10.078,7.19-14.54,11.646 c-1.186,1.186-2.319,2.409-3.425,3.652H86.167c-1.811,0-3.28,1.468-3.28,3.28c0,1.811,1.469,3.28,3.28,3.28h66.203 c-3.499,4.802-6.456,9.926-8.857,15.292H86.167c-1.811,0-3.28,1.469-3.28,3.28s1.469,3.279,3.28,3.279h54.711 c-1.733,4.945-3.004,10.063-3.8,15.299H86.167c-1.811,0-3.28,1.469-3.28,3.279c0,1.812,1.469,3.28,3.28,3.28h50.186 c-0.158,2.142-0.263,4.295-0.262,6.464c0.002,2.97,0.16,5.916,0.462,8.83H86.167c-1.811,0-3.28,1.469-3.28,3.279 c0,1.812,1.469,3.28,3.28,3.28h51.326c0.96,5.248,2.407,10.365,4.316,15.298H86.167c-1.811,0-3.28,1.468-3.28,3.28 c0,1.812,1.469,3.279,3.28,3.279h58.523c2.631,5.394,5.838,10.518,9.601,15.295H86.167c-1.811,0-3.28,1.469-3.28,3.279 c0,1.812,1.469,3.28,3.28,3.28h73.857c0.356,0.367,0.697,0.744,1.06,1.105c16.105,16.125,37.522,25.002,60.31,25.002 c22.782,0,44.204-8.873,60.323-24.985c1.063-1.063,2.094-2.149,3.092-3.255c0.115-0.126,0.221-0.257,0.332-0.383 c0.875-0.978,1.728-1.968,2.549-2.977c0.176-0.214,0.338-0.436,0.51-0.65c0.756-0.947,1.498-1.9,2.207-2.87 c0.128-0.175,0.248-0.355,0.375-0.53c0.77-1.073,1.521-2.155,2.232-3.253c0.002-0.004,0.004-0.006,0.006-0.009 c1.902-2.915,3.604-5.94,5.123-9.05h127.69c1.812,0,3.28-1.468,3.28-3.279c0-1.813-1.469-3.28-3.28-3.28H301.015 c1.911-4.934,3.366-10.048,4.325-15.298h120.493c1.812,0,3.28-1.469,3.28-3.28c0-1.811-1.469-3.279-3.28-3.279H306.27 c0.3-2.915,0.461-5.86,0.463-8.83c0.002-2.169-0.103-4.321-0.262-6.464h119.362c1.812,0,3.28-1.469,3.28-3.28 c0-1.811-1.469-3.279-3.28-3.279H305.746c-0.797-5.235-2.068-10.353-3.801-15.299h123.888c1.812,0,3.28-1.468,3.28-3.279 s-1.469-3.28-3.28-3.28H299.31c-2.402-5.366-5.36-10.489-8.86-15.292h135.384c1.812,0,3.28-1.469,3.28-3.28 c0-1.812-1.469-3.28-3.28-3.28H285.158c-1.107-1.243-2.241-2.467-3.43-3.654c-4.465-4.455-9.352-8.333-14.551-11.644h158.655 C427.645,225.554,429.113,224.085,429.113,222.274z M265.01,341.162c-11.863,11.861-27.655,18.393-44.466,18.393 c-7.557,0-14.906-1.331-21.792-3.861c-0.504-0.041-1.009-0.186-1.478-0.456c-0.123-0.069-0.226-0.159-0.336-0.242 c-7.725-3.116-14.818-7.774-20.886-13.831c-24.493-24.542-24.493-64.469-0.005-89.006c11.887-11.865,27.688-18.396,44.498-18.396 c16.811,0,32.603,6.532,44.466,18.394c11.904,11.904,18.461,27.709,18.461,44.503S276.914,329.258,265.01,341.162z"/> <path d="M425.833,350.128H301.658c-1.812,0-3.279,1.469-3.279,3.279c0,0.872,0.346,1.658,0.898,2.245 c-0.006-0.006-0.014-0.013-0.02-0.02l-8.257-8.244c-0.065,0.092-0.14,0.182-0.206,0.273c-0.434,0.596-0.879,1.186-1.33,1.771 c-0.365,0.478-0.736,0.951-1.113,1.422c-0.4,0.5-0.803,0.995-1.215,1.488c-0.475,0.565-0.963,1.122-1.455,1.678 c-0.309,0.351-0.607,0.708-0.923,1.054c-0.255,0.427-0.594,0.797-1.009,1.069c-0.596,0.631-1.188,1.262-1.803,1.875l-0.002,0.001 v0.001c0,0.001-0.002,0.001-0.002,0.001c-3.247,3.314-6.752,6.324-10.631,9.116l19.038,19.037l19.214-19.243l0.504-0.505 l-10.637-10.621c-0.007-0.006-0.012-0.014-0.019-0.019c0.587,0.555,1.374,0.899,2.245,0.899h124.175c1.812,0,3.28-1.469,3.28-3.28 C429.113,351.597,427.645,350.128,425.833,350.128z"/> </g> </g> <g id="Layer_1"/> </g>
</svg>